<svg xmlns="http://www.w3.org/2000/svg" viewBox="0 0 500 500"><g id="freepik--404--inject-3"><path d="M147.68,287.64H86.83V260.17l60.85-72.34H176.8v73.9h15.09v25.91H176.8v22.48H147.68Zm0-25.91V223.89l-32.16,37.84Z" style="fill:#FFC100"></path><path d="M202.3,249.51q0-34.29,12.34-48t37.61-13.7q12.13,0,19.93,3a36.79,36.79,0,0,1,12.71,7.79,41.59,41.59,0,0,1,7.75,10.09,52.38,52.38,0,0,1,4.55,12.34,115.36,115.36,0,0,1,3.36,28q0,32.72-11.07,47.89t-38.13,15.18q-15.18,0-24.53-4.84a39.76,39.76,0,0,1-15.33-14.19q-4.35-6.64-6.77-18.17A124.33,124.33,0,0,1,202.3,249.51Zm33.14.08q0,23,4.05,31.37t11.77,8.41a12.34,12.34,0,0,0,8.82-3.57q3.74-3.57,5.5-11.28t1.76-24q0-23.94-4.06-32.19t-12.18-8.24q-8.28,0-12,8.41T235.44,249.59Z" style="fill:#FFC100"></path><path d="M371.74,287.64H310.89V260.17l60.85-72.34h29.12v73.9H416v25.91H400.86v22.48H371.74Zm0-25.91V223.89l-32.15,37.84Z" style="fill:#FFC100"></path></g><g id="freepik--Rocket--inject-3"><path d="M267.26,257.17a94,94,0,0,1-1.68,17.35q-1.77,7.71-5.5,11.28a12.3,12.3,0,0,1-8.81,3.57q-7.71,0-11.77-8.41a23.79,23.79,0,0,1-1.21-3.11,144.31,144.31,0,0,0-15.92,16l-5.31,6.26a38.62,38.62,0,0,0,9.77,7.19q9.34,4.83,24.52,4.84c1.78,0,3.5-.05,5.17-.15a143.39,143.39,0,0,0,15.1-29l14.85-38.72Z" style="opacity:0.2"></path><path d="M133.39,310l17.5,17.5,49-46.17C183,274.88,150.16,293.19,133.39,310Z" style="fill:#263238"></path><path d="M194.42,371c-5.59-5.6-17.5-17.5-17.5-17.5l46.17-49C229.5,321.35,211.19,354.22,194.42,371Z" style="fill:#263238"></path><path d="M261.4,260.7l19.09-36.81L243.68,243a144.22,144.22,0,0,0-32.44,23l-62.75,59.07,30.83,30.83,59.07-62.75A144.22,144.22,0,0,0,261.4,260.7Z" style="fill:#FFC100"></path><path d="M261.4,260.7l19.09-36.81L243.68,243a144.22,144.22,0,0,0-32.44,23l-62.75,59.07,30.83,30.83,59.07-62.75A144.22,144.22,0,0,0,261.4,260.7Z" style="fill:#fff;opacity:0.6000000000000001"></path><circle cx="222.2" cy="282.18" r="12.9" style="fill:#fff"></circle><circle cx="222.2" cy="282.18" r="8.29" style="fill:#FFC100"></circle><polygon points="189.75 344.82 159.56 314.63 184.28 291.37 213.01 320.11 189.75 344.82" style="fill:#FFC100;opacity:0.30000000000000004"></polygon><path d="M140.22,337.62c-22.6,1.83-30.09,16.3-32.65,35.53-1.3,9.81-1.88,19.74-10.11,25.48a2.77,2.77,0,0,0,1.63,5.06c30.34-.95,44.49-15.8,46.27-22a43.06,43.06,0,0,1-2.49,9.47,2.76,2.76,0,0,0,4,3.39c8.51-5.33,19.19-15.15,19.9-31.08C160.51,354.6,140.22,337.62,140.22,337.62Z" style="fill:#FFC100"></path><path d="M140.22,337.62c-22.6,1.83-30.09,16.3-32.65,35.53-1.3,9.81-1.88,19.74-10.11,25.48a2.77,2.77,0,0,0,1.63,5.06c30.34-.95,44.49-15.8,46.27-22a43.06,43.06,0,0,1-2.49,9.47,2.76,2.76,0,0,0,4,3.39c8.51-5.33,19.19-15.15,19.9-31.08C160.51,354.6,140.22,337.62,140.22,337.62Z" style="fill:#fff;opacity:0.2"></path><polygon points="170.28 370.3 134.08 334.1 153.36 329.93 174.45 351.02 170.28 370.3" style="fill:#FFC100"></polygon></g></svg>